<?xml version="1.0" encoding="UTF-8" standalone="no"?>
<svg xmlns="http://www.w3.org/2000/svg" xml:space="preserve" width="137" height="162">
  <path fill="red" fill-rule="evenodd" d="M66.246 2c-21.65.35-41.406 2.594-59 7-1.299 8.702-3.469 17.014-4 26-.354 5.99-.301 12.007 0 18 2.627 52.283 29.898 84.769 66 106H69c36.102-21.231 63.373-53.717 66-106 .301-5.993.354-12.01 0-18-.531-8.986-2.701-17.298-4-26-17.594-4.406-37.35-6.65-59-7h-5.754z" clip-rule="evenodd"/>
  <path fill="#fc0" fill-rule="evenodd" d="M59 133c-6.775-6.387-2.685-16.365-5-25-1.798-6.707-12.385-11.547-7-20-7.069 1.569-17.429-.876-21-6 6.357.024 8.817-3.849 15-4-22.942-1.238-39.945-35.451-21-49-2.41 21.17 11.279 34.651 33 35 2.45256-2.696252 8.887948-4.306047 16.053031-4.414799 7.165082.108752 13.60047 1.718547 16.05303 4.414799 21.720999-.349 35.409999-13.83 32.999999-35 18.945 13.549 1.942 47.762-20.999999 49 6.182999.151 8.642999 4.024 14.999999 4-3.571 5.124-13.931 7.569-20.999999 6 5.385 8.453-5.202 13.293-7 20-2.315 8.635 1.775 18.613-5 25-3.933515-.78486-6.615559-1.18881-10.05303-1.21171C65.615559 131.81124 62.933515 132.21514 59 133z"/>
</svg>