<?xml version="1.0" encoding="UTF-8"?>
<!DOCTYPE svg PUBLIC "-//W3C//DTD SVG 1.1//EN" "http://www.w3.org/Graphics/SVG/1.1/DTD/svg11.dtd">
<!-- Creator: CorelDRAW Home & Student X7 -->
<svg xmlns="http://www.w3.org/2000/svg" xml:space="preserve" width="88.9604mm" height="106.96mm" version="1.1" style="shape-rendering:geometricPrecision; text-rendering:geometricPrecision; image-rendering:optimizeQuality; fill-rule:evenodd; clip-rule:evenodd"
viewBox="0 0 8896 10696"
 xmlns:xlink="http://www.w3.org/1999/xlink">
 <defs>
  <style type="text/css">
   <![CDATA[
    .str0 {stroke:black;stroke-width:20.0002}
    .str1 {stroke:black;stroke-width:10.0001}
    .fil3 {fill:none}
    .fil2 {fill:black}
    .fil4 {fill:#000066}
    .fil1 {fill:#78A4CF}
    .fil5 {fill:red}
    .fil0 {fill:#FF9900}
    .fnt0 {font-weight:normal;font-size:564.436px;font-family:Arial}
    .fnt2 {font-style:italic;font-weight:normal;font-size:317.504px;font-family:Arial}
    .fnt1 {font-style:italic;font-weight:normal;font-size:388.054px;font-family:Arial}
   ]]>
  </style>
 </defs>
 <g id="Layer_x0020_1">
  <metadata id="CorelCorpID_0Corel-Layer"/>
  <path class="fil0" d="M4530 8467c-47,0 -63,6 -63,25 0,19 -13,24 -59,21 -119,-6 -146,-1 -146,33 0,17 -6,32 -16,32 -8,0 -15,17 -15,39 0,29 -9,39 -31,39 -54,0 -80,19 -80,57 0,22 -7,39 -17,39 -9,0 -48,30 -85,68 -37,39 -82,75 -100,81 -19,5 -35,17 -35,25 0,8 -11,15 -23,15 -13,0 -24,11 -24,23 0,13 -7,24 -16,24 -8,0 -16,11 -16,25 0,24 -81,118 -102,118 -6,0 -21,10 -34,23 -13,13 -41,23 -63,23 -27,0 -38,10 -38,32 0,20 -13,35 -39,41 -28,8 -39,20 -39,48 0,35 -6,38 -79,38 -44,0 -79,8 -79,16 0,8 -15,16 -32,16 -18,0 -31,-10 -31,-20 -1,-14 -7,-12 -17,4 -13,17 -19,18 -26,3 -12,-31 -53,-22 -53,12 0,24 -14,33 -71,41 -65,10 -71,14 -71,56 0,26 8,46 16,46 9,0 16,24 16,55 0,31 7,55 15,55 8,0 19,15 24,32 7,18 24,31 41,31 44,0 78,45 78,104 0,30 7,54 16,54 8,0 16,11 16,23 0,14 7,25 16,25 8,0 15,9 15,22 0,31 104,136 134,136 14,0 24,7 24,15 0,9 26,16 55,16 31,0 55,-7 55,-16 0,-8 23,-15 48,-15 26,0 48,6 48,14 0,9 24,21 55,26 32,6 58,22 63,38 6,17 31,33 60,38 28,5 64,28 81,50 16,21 42,39 57,39 16,0 33,14 38,32 7,17 17,30 26,30 8,0 15,18 15,41 0,24 8,39 23,39 13,0 23,-6 23,-16 0,-8 18,-16 38,-16 22,0 42,-7 45,-16 3,-9 55,-20 115,-22 61,-3 112,-14 116,-23 3,-10 22,-17 43,-17 21,0 38,-8 38,-16 0,-9 17,-16 38,-16 21,0 50,-11 63,-23 12,-14 38,-25 56,-25 18,0 33,-6 33,-15 0,-9 28,-21 63,-26 35,-5 63,-16 63,-23 0,-9 18,-14 40,-14 24,0 39,-10 39,-24 0,-13 14,-24 32,-24 17,0 32,-7 32,-16 0,-8 7,-15 17,-15 8,0 26,-11 39,-23 32,-32 27,-57 -10,-57 -26,0 -30,-10 -30,-62 0,-35 6,-64 14,-64 10,0 16,-18 16,-39 0,-26 -8,-40 -25,-40 -21,0 -23,-12 -14,-74 6,-42 17,-79 25,-81 20,-7 18,-50 -2,-50 -8,0 -14,-32 -14,-72 0,-39 6,-71 14,-71 10,0 16,-18 16,-39 0,-22 8,-39 15,-39 9,0 20,-33 27,-72 5,-38 16,-71 24,-71 7,0 14,-7 14,-18 0,-23 -162,-8 -171,16 -8,27 -45,22 -82,-9 -29,-25 -31,-40 -22,-147 7,-64 18,-124 28,-130 13,-7 13,-11 0,-11 -10,0 -22,-26 -29,-56 -5,-30 -17,-55 -25,-55 -9,0 -15,-11 -15,-24 0,-13 -7,-23 -16,-23 -8,0 -16,-15 -16,-32 0,-17 -6,-32 -14,-32 -8,0 -20,-21 -25,-47 -6,-26 -17,-47 -25,-47 -8,0 -14,-15 -14,-32 0,-18 -7,-32 -16,-32 -9,0 -17,-19 -18,-43 0,-24 -4,-35 -8,-23 -6,10 -35,19 -70,19l0 0z"/>
  <path class="fil0" d="M2836 7669c-10,-158 -13,-169 -59,-213 -26,-26 -58,-47 -71,-47 -12,0 -23,-7 -23,-16 0,-8 8,-16 16,-16 8,0 16,-14 16,-31 0,-15 8,-33 20,-38 12,-4 8,-8 -8,-8 -15,-1 -28,5 -28,14 0,9 -14,16 -32,16 -26,0 -32,-11 -32,-63 0,-35 -6,-63 -15,-63 -9,0 -16,-29 -16,-63 0,-48 7,-65 31,-72 32,-11 46,-55 16,-55 -8,0 -16,-32 -16,-71 0,-39 8,-71 16,-71 9,0 16,-10 16,-24 0,-13 -7,-24 -16,-24 -8,0 -16,-14 -16,-31 0,-18 11,-32 25,-32 13,0 22,-13 22,-28 -1,-17 -4,-19 -9,-7 -5,11 -22,19 -39,19 -24,0 -30,-11 -30,-55 0,-31 7,-55 16,-55 9,0 15,-11 15,-22 0,-13 10,-27 21,-32 15,-8 15,-12 0,-19 -11,-4 -21,-16 -21,-26 0,-43 -68,-75 -164,-75 -84,0 -100,-5 -126,-39 -17,-22 -42,-40 -58,-40 -16,0 -33,-14 -38,-32 -5,-17 -17,-31 -25,-31 -8,0 -15,-25 -15,-56 0,-29 7,-55 16,-55 9,0 16,-32 16,-71 0,-39 -7,-71 -16,-71 -9,0 -16,-13 -16,-31 0,-23 -10,-32 -37,-32 -34,0 -38,8 -45,87 -5,62 -17,95 -40,115 -18,16 -38,48 -44,71 -7,27 -22,42 -41,42 -18,0 -29,12 -29,29 0,40 -56,82 -112,82 -25,0 -46,8 -46,16 0,9 -29,16 -63,16 -58,0 -112,31 -112,65 0,7 -13,14 -28,14 -16,0 -44,18 -60,40 -16,21 -38,39 -48,39 -11,0 -16,10 -12,21 5,13 -2,33 -16,47 -30,29 -32,53 -5,63 41,17 -27,43 -87,33 -48,-7 -59,-4 -59,16 0,14 10,25 24,25 13,0 23,8 23,17 0,22 -40,62 -61,62 -10,0 -18,11 -18,24 0,15 -15,23 -39,23 -22,0 -40,7 -40,14 0,20 42,34 104,34 43,0 54,6 54,31 0,16 9,33 20,36 14,5 11,16 -10,37 -21,21 -33,24 -37,10 -3,-10 -24,-19 -43,-19 -29,0 -38,11 -46,59 -18,113 -12,158 30,201 23,22 58,40 80,40 31,0 41,10 49,47 5,26 22,50 39,56 16,5 29,25 30,44 2,19 5,26 10,15 14,-35 36,-21 37,23 0,25 5,36 12,27 33,-49 146,-40 146,10 0,22 10,31 38,31 20,0 40,-8 43,-19 12,-33 109,81 119,138 5,29 15,55 22,55 9,0 14,14 14,30 0,18 -6,32 -16,32 -8,0 -16,50 -16,119 0,95 -4,118 -23,118 -13,0 -23,11 -23,24 0,14 6,24 13,24 8,0 19,51 26,114 8,82 20,122 41,140 16,14 30,34 30,44 0,9 21,18 47,18 26,0 48,7 48,16 0,8 17,15 39,15 21,0 39,7 39,15 0,9 24,17 52,20 39,4 52,13 56,41 4,22 16,35 35,35 17,0 31,10 31,24 0,13 11,23 24,23 13,0 24,8 24,16 0,9 13,16 30,16 37,0 43,-29 9,-41 -14,-6 -23,-30 -23,-55 0,-43 4,-46 55,-46 43,0 55,6 55,30 0,39 18,43 152,40l114 -3 80 -81c48,-47 85,-100 90,-128 5,-26 16,-48 23,-48 20,0 18,-264 -2,-271 -8,-3 -20,-44 -26,-92 -7,-59 -20,-96 -43,-115 -27,-24 -28,-31 -9,-44 14,-8 16,-14 6,-14 -10,0 -21,-63 -27,-167l0 0z"/>
  <path class="fil0" d="M2909 6683c27,0 49,6 49,13 0,8 28,13 60,13 45,0 59,-4 59,-21 0,-12 18,-37 40,-58 25,-23 39,-50 39,-71 0,-19 7,-35 14,-35 8,0 13,-9 13,-20 0,-12 31,-50 67,-86 36,-35 65,-71 65,-80 0,-8 18,-31 41,-53 21,-20 39,-43 39,-51 0,-10 18,-33 40,-53 21,-22 39,-45 39,-53 0,-10 18,-33 40,-53 22,-21 40,-45 40,-53 0,-22 34,-53 59,-53 10,0 20,-6 20,-14 0,-7 21,-13 47,-13 25,0 46,6 46,13 0,9 48,14 118,14 82,0 119,4 125,16 3,9 7,3 7,-13 1,-17 7,-30 15,-30 6,0 13,-9 13,-21 0,-33 35,-58 79,-58 41,0 79,-25 79,-52 0,-8 -6,-15 -12,-15 -8,0 -14,-26 -14,-59 0,-51 4,-59 26,-59 15,0 27,-7 27,-14 0,-8 12,-13 26,-13 15,0 27,-6 27,-14 0,-7 9,-12 21,-12 26,0 58,-32 58,-61 0,-11 -18,-38 -40,-59 -34,-32 -39,-47 -39,-104 0,-59 3,-67 26,-67 15,0 27,-7 27,-14 0,-7 23,-13 53,-13 44,0 53,-4 53,-26 0,-15 6,-27 12,-27 8,0 14,-10 14,-23 0,-14 12,-33 27,-44 39,-28 31,-62 -27,-118 -49,-47 -53,-57 -53,-118 0,-37 7,-68 13,-68 7,0 14,-11 14,-26 0,-15 6,-26 12,-26 8,0 14,-22 14,-47 0,-42 -2,-46 -20,-28 -11,11 -20,27 -20,34 0,29 -91,107 -125,107 -18,0 -33,6 -33,13 0,7 -13,14 -26,14 -15,0 -27,5 -27,12 0,8 -13,14 -27,14 -32,0 -119,-82 -119,-112 0,-12 -12,-20 -26,-20 -15,0 -27,-6 -27,-14 0,-7 -57,-13 -145,-13 -121,0 -146,-3 -146,-20 0,-10 6,-20 14,-20 22,0 13,-33 -14,-53 -14,-10 -27,-29 -27,-42 0,-13 -5,-23 -12,-23 -8,0 -14,-36 -14,-80l0 -79 -66 0c-57,0 -66,-5 -66,-27 0,-22 -9,-26 -46,-26 -25,0 -47,5 -47,12 0,8 -26,14 -59,14 -33,0 -60,-6 -60,-14 0,-7 -36,-12 -83,-12 -68,0 -87,4 -101,26 -18,25 -35,27 -203,27 -112,0 -182,4 -182,12 0,8 -18,14 -39,14 -22,0 -40,5 -40,13 0,7 -12,14 -27,14 -13,0 -26,5 -26,12 0,8 -12,14 -27,14 -13,0 -26,5 -26,13 0,7 -18,14 -39,14 -22,0 -40,5 -40,12 0,8 -12,14 -27,14 -14,0 -26,5 -26,13 0,7 -18,14 -40,14 -22,0 -40,5 -40,12 0,8 -17,14 -39,14 -22,0 -40,5 -40,13 0,7 -12,14 -27,14 -14,0 -26,5 -26,12 0,8 -12,14 -27,14 -13,0 -26,5 -26,13 0,7 -12,13 -27,13 -13,0 -26,6 -26,13 0,8 -10,14 -20,14 -12,0 -38,18 -58,39 -22,22 -46,40 -57,40 -9,0 -26,12 -37,27 -10,14 -27,26 -37,26 -24,0 -55,33 -55,59 0,11 -6,21 -14,21 -7,0 -12,10 -12,23 0,13 -13,32 -27,42 -23,17 -26,34 -26,129 0,92 3,110 21,110 12,0 37,18 58,39 20,22 47,40 58,40 16,0 22,14 22,66 0,37 5,66 12,66 8,0 14,49 14,119 0,71 5,120 13,120 7,0 14,11 14,26 0,14 5,27 12,27 8,0 14,10 14,23 0,13 12,32 27,42 13,11 26,30 26,43 0,13 5,24 13,24 7,0 14,12 14,26 0,15 8,27 19,27 11,0 20,-6 20,-14 0,-7 29,-13 66,-13 70,0 105,21 105,59 0,11 7,21 14,21 7,0 13,41 13,98 0,58 -6,100 -13,100 -20,0 -16,52 5,74 11,10 28,18 37,18 10,0 27,13 37,26 11,15 30,27 43,27 12,0 23,6 23,14 0,7 38,12 87,12 81,0 89,4 132,47 26,24 46,55 46,66 0,11 6,20 14,20 7,0 12,18 12,40 0,31 7,39 27,39 15,0 26,7 26,14 0,7 11,13 25,13 12,0 31,12 42,26 13,19 34,27 69,27l0 0z"/>
  <path class="fil0" d="M2584 4464c12,0 25,-8 28,-19 5,-14 71,-21 215,-25 114,-4 209,-13 209,-21 0,-8 10,-14 23,-14 13,0 23,-7 23,-16 0,-24 248,-20 260,4 7,16 11,16 19,0 5,-13 44,-20 110,-20 91,0 102,3 102,32 0,21 10,32 30,32 21,0 32,-11 32,-32 0,-17 7,-32 16,-32 8,0 16,-17 16,-39 0,-21 9,-40 20,-40 16,-1 16,-4 0,-10 -11,-4 -20,-15 -20,-23 0,-32 -46,-62 -94,-62 -28,0 -61,-9 -72,-22 -25,-24 -33,-167 -10,-167 7,0 19,-50 25,-110 6,-62 16,-111 24,-111 6,0 27,-13 45,-30 36,-31 46,-65 19,-65 -9,0 -16,-17 -16,-38 0,-24 -11,-42 -30,-49 -42,-12 -48,-40 -45,-195 2,-95 -2,-136 -16,-140 -10,-4 -20,-23 -20,-44 0,-20 -8,-40 -19,-43 -14,-5 -19,-46 -18,-136 1,-111 7,-133 35,-158 40,-35 45,-89 10,-103 -14,-5 -47,-10 -72,-10 -25,0 -46,-7 -46,-15 0,-9 -10,-16 -23,-16 -14,0 -24,-8 -24,-16 0,-9 -11,-16 -24,-16 -14,0 -24,-8 -24,-16 0,-24 -92,-110 -117,-110 -12,0 -26,-18 -31,-40 -6,-22 -17,-40 -26,-40 -8,0 -16,-18 -16,-39 0,-22 -6,-39 -13,-39 -9,0 -19,-36 -26,-79 -6,-44 -17,-79 -25,-79 -8,0 -14,-18 -14,-40 0,-21 -6,-39 -14,-39 -8,0 -20,-71 -25,-158 -7,-87 -18,-158 -26,-158 -8,0 -14,-25 -14,-56 0,-29 -7,-55 -16,-55 -9,0 -16,-17 -16,-38 0,-21 -11,-49 -23,-62 -13,-13 -24,-31 -24,-41 0,-9 -7,-17 -16,-17 -9,0 -16,-18 -16,-39 0,-23 -9,-40 -22,-40 -15,0 -26,28 -33,79 -6,44 -18,80 -25,80 -8,0 -15,10 -15,23 0,13 -6,23 -14,23 -8,0 -19,36 -25,80 -6,43 -17,78 -25,78 -8,0 -14,15 -14,33 0,18 -10,42 -20,55l-42 48c-19,22 -59,25 -318,20 -285,-5 -298,-6 -328,-40 -16,-20 -38,-36 -47,-36 -10,0 -19,16 -22,36 -4,22 -18,37 -40,40 -20,2 -39,18 -45,35 -4,17 -15,31 -23,31 -27,0 -63,50 -63,87 0,22 -7,39 -16,39 -8,0 -16,18 -16,40 0,21 -7,39 -17,39 -9,0 -27,11 -39,22 -12,13 -23,31 -23,40 0,9 -6,17 -15,17 -8,0 -20,17 -25,40 -7,21 -17,39 -25,39 -7,0 -13,13 -13,31 0,21 -15,35 -41,42 -21,5 -39,16 -39,23 0,9 -10,15 -23,15 -14,0 -24,5 -24,14 0,7 -22,18 -48,23 -47,10 -113,57 -80,57 10,0 17,11 17,23 0,14 8,25 16,25 9,0 16,14 16,32 0,17 -7,30 -16,30 -8,0 -16,14 -16,31 0,31 -28,49 -80,49 -17,0 -30,7 -30,16 0,8 -15,15 -32,15 -18,0 -46,14 -63,32 -17,17 -32,46 -32,63 0,18 -6,31 -16,31 -8,0 -16,15 -16,32 0,17 -6,32 -13,32 -9,0 -19,21 -26,48 -5,25 -17,46 -24,46 -9,0 -15,14 -15,31 0,17 -7,33 -16,36 -9,3 -21,68 -26,143 -6,76 -16,139 -24,139 -7,0 -13,41 -13,93 0,51 -7,95 -14,98 -13,5 -24,140 -19,213 1,10 24,22 51,28 27,5 61,23 75,39 14,16 41,34 61,40 19,6 35,18 35,27 0,7 11,13 25,13 12,0 23,8 23,16 0,9 18,20 39,26 22,5 40,15 40,24 0,7 11,14 25,14 13,0 40,18 60,39 21,22 46,40 55,40 10,0 18,6 18,15 0,9 13,16 29,16 28,0 81,52 81,79 0,9 11,16 25,16 12,0 23,14 23,31 0,17 14,35 31,40 16,5 34,23 40,39 5,17 23,35 39,39 17,7 33,31 39,65 5,30 17,54 26,54 8,0 14,12 14,24 0,13 8,24 16,24 9,0 19,18 26,39 5,22 16,40 23,40 8,0 15,14 15,32 0,17 6,31 16,31 8,0 16,10 16,24 0,13 9,23 21,24 12,0 26,-10 30,-24 6,-13 25,-23 42,-23 18,0 33,-8 33,-16 0,-9 7,-16 18,-16 9,0 33,-18 54,-39 20,-23 47,-40 61,-40 14,0 24,-7 24,-14 0,-9 21,-19 48,-26 25,-5 48,-17 48,-24 0,-9 13,-15 30,-15 18,0 32,-6 32,-14 0,-8 36,-20 79,-25 44,-6 79,-18 79,-25 0,-8 10,-15 22,-15 13,0 25,-8 29,-16 3,-10 35,-21 72,-27 37,-4 66,-14 66,-22 0,-7 11,-14 23,-14l0 0z"/>
  <path class="fil0" d="M3657 3615c15,124 13,133 -29,176 -30,29 -43,62 -50,135 -5,52 -16,96 -23,96 -8,0 -14,21 -14,46 0,44 4,48 55,48 40,0 70,13 105,46 46,46 48,50 38,142 -7,53 -18,96 -26,96 -8,0 -14,43 -14,95 0,52 7,94 15,94 9,0 21,18 26,40 5,22 16,40 23,40 9,0 15,13 15,29 0,27 15,31 131,36 97,4 139,13 158,32 15,15 27,31 27,36 0,5 9,20 20,33 22,25 75,31 75,6 0,-8 16,-16 36,-16 45,0 97,-41 112,-90 9,-28 23,-36 66,-36 29,0 54,-6 54,-13 0,-8 18,-20 39,-25 22,-5 40,-17 40,-25 0,-9 48,-15 108,-15 83,0 111,-6 119,-24 5,-13 23,-24 40,-24 17,0 35,-13 40,-30 8,-23 30,-34 81,-42 38,-6 70,-17 70,-24 0,-9 38,-15 85,-15 47,0 88,-7 91,-16 4,-10 94,-18 234,-20l229 -3 67 67c37,37 68,74 68,80 0,31 61,83 108,92 27,6 49,16 49,24 0,7 17,13 39,13 21,0 41,9 44,20 4,13 57,22 167,25 139,5 161,2 161,-19 0,-14 7,-26 14,-26 8,0 19,-35 25,-79 7,-42 17,-78 26,-78 7,0 14,-29 14,-64 0,-35 6,-62 13,-62 9,0 19,-61 26,-135 6,-74 18,-134 25,-134 9,0 15,-35 15,-80 0,-42 6,-78 14,-78 8,0 20,-61 25,-135 7,-74 18,-134 26,-134 7,0 13,-28 13,-63 0,-35 7,-63 14,-63 9,0 20,-48 26,-107 6,-58 20,-111 29,-118 14,-8 14,-11 0,-11 -9,0 -23,-36 -29,-80 -6,-43 -17,-79 -25,-79 -8,0 -15,-11 -15,-23 0,-14 -6,-24 -13,-24 -9,0 -19,-36 -26,-79 -6,-44 -17,-80 -25,-80 -8,0 -14,-17 -14,-39 0,-21 -6,-39 -15,-39 -7,0 -19,-36 -25,-79 -6,-44 -17,-79 -25,-79 -8,0 -14,-15 -14,-31 0,-17 -7,-32 -14,-32 -9,0 -19,-35 -26,-79 -6,-43 -17,-79 -25,-79 -7,0 -14,-18 -14,-39 0,-22 -6,-39 -15,-39 -7,0 -19,-36 -25,-80 -5,-43 -17,-78 -24,-78 -9,0 -15,-12 -15,-25 0,-12 -7,-23 -14,-23 -8,0 -20,-36 -25,-79 -7,-44 -17,-79 -26,-79 -7,0 -14,-18 -14,-40 0,-21 -8,-39 -16,-39 -29,0 -63,-42 -63,-77 0,-18 -7,-33 -16,-33 -8,0 -20,-18 -25,-39 -6,-23 -16,-41 -24,-41 -8,0 -14,-18 -14,-39 0,-21 -7,-39 -15,-39 -9,0 -19,-25 -26,-55 -5,-31 -17,-56 -24,-56 -7,0 -14,-7 -14,-17 0,-8 -10,-26 -22,-39 -13,-13 -31,-22 -40,-22 -10,0 -17,-11 -17,-25 0,-13 -11,-23 -23,-23 -13,0 -25,-11 -25,-23 0,-14 -6,-25 -15,-25 -9,0 -15,-14 -15,-29 0,-17 -10,-34 -21,-37 -12,-5 -21,-52 -25,-136 -3,-71 -12,-129 -20,-129 -8,0 -14,-82 -14,-182 0,-110 -6,-181 -16,-181 -8,0 -16,-49 -16,-115 0,-63 -4,-141 -9,-172 -10,-54 -15,-60 -75,-70 -36,-5 -76,-22 -89,-38 -18,-20 -62,-30 -174,-37 -83,-6 -152,-18 -156,-27 -2,-8 -22,-16 -43,-16 -20,0 -38,-6 -38,-15 0,-9 -21,-15 -47,-15 -26,0 -47,-8 -47,-16 0,-10 -59,-16 -142,-16 -85,0 -143,6 -143,16 0,9 -61,16 -150,16 -90,0 -150,6 -150,15 0,9 -18,15 -39,15 -22,0 -40,8 -40,16 0,8 -19,16 -44,19 -71,9 -53,75 46,174l81 82 -8 261c-5,168 -15,264 -26,267 -9,3 -18,26 -18,52 0,25 -6,46 -13,46 -8,0 -18,20 -23,46 -6,28 -23,51 -44,57 -69,22 -104,75 -112,170 -6,66 -16,98 -42,119 -19,17 -33,38 -33,48 0,10 -8,18 -16,18 -9,0 -16,17 -16,38 0,39 -37,88 -66,88 -8,0 -33,18 -54,40 -50,49 -130,53 -169,7 -15,-18 -27,-36 -27,-40 0,-21 -113,-133 -134,-133 -5,0 -22,-12 -36,-26 -19,-20 -43,-23 -105,-15 -44,7 -83,17 -86,26 -3,8 -29,15 -59,15 -30,0 -54,6 -54,13 0,8 -35,20 -78,25 -44,5 -80,17 -80,25 0,9 -24,16 -53,16 -29,0 -57,9 -61,19 -12,33 6,217 21,217 8,0 15,36 15,80 0,43 6,78 15,78 9,0 15,18 15,40 0,21 8,39 15,39 9,0 20,40 26,87 6,48 18,87 25,87 8,0 14,11 14,23 0,13 50,73 111,135 62,60 122,111 135,111 12,0 23,5 23,14 0,7 27,18 62,23 35,5 64,17 64,26 0,8 7,15 17,15 22,0 62,41 62,63 0,9 -25,42 -57,72 -52,51 -56,63 -59,152 -1,66 4,100 17,104 11,4 20,23 20,44 0,21 8,40 20,43 14,5 19,51 19,156 0,139 2,149 34,153 27,4 35,19 43,87l0 0z"/>
  <path class="fil1" d="M1463 6554c29,-14 69,-44 89,-65 21,-21 53,-44 71,-51 18,-6 33,-19 33,-29 0,-9 52,-23 117,-30 124,-14 157,-36 202,-137 15,-33 33,-60 41,-60 7,0 14,-12 14,-28 0,-15 15,-35 33,-44 28,-17 27,-23 -18,-66 -29,-25 -56,-69 -64,-96 -6,-28 -23,-54 -37,-60 -13,-4 -30,-34 -36,-63 -6,-30 -19,-55 -26,-55 -9,0 -19,-71 -25,-159 -8,-132 -17,-166 -50,-195 -22,-18 -39,-42 -39,-53 0,-10 -21,-24 -47,-31 -45,-11 -47,-18 -47,-158 0,-115 6,-151 29,-159 14,-5 27,-23 27,-39 0,-16 10,-29 20,-29 18,0 12,-9 -48,-80 -11,-13 -32,-52 -46,-88 -15,-36 -38,-77 -51,-90 -14,-14 -24,-37 -24,-52 0,-15 -8,-27 -18,-27 -10,0 -22,-17 -29,-37 -17,-54 -275,-309 -343,-339 -33,-14 -59,-32 -59,-40 0,-7 -13,-14 -28,-14 -14,0 -42,-17 -60,-36 -19,-20 -56,-42 -84,-48 -27,-8 -55,-25 -60,-39 -5,-15 -23,-27 -39,-27 -16,0 -29,-8 -29,-18 0,-11 -10,-19 -23,-19 -14,0 -39,-17 -56,-38 -35,-40 -44,-93 -16,-93 10,0 23,-84 30,-187 7,-103 20,-187 28,-187 8,0 20,-68 27,-149 7,-83 21,-151 29,-151 10,0 28,-33 40,-74 12,-41 29,-75 37,-75 7,0 20,-26 27,-58 17,-78 81,-147 134,-147 24,0 43,-9 43,-20 0,-10 17,-19 37,-19 28,0 38,-12 38,-46 0,-43 -7,-47 -77,-47 -86,0 -156,-56 -177,-141 -7,-25 -18,-46 -25,-46 -8,0 -25,-30 -40,-66 -13,-36 -31,-65 -40,-65 -8,0 -16,-13 -16,-29 0,-15 -12,-33 -27,-39 -16,-6 -29,-22 -29,-36 0,-14 -10,-32 -24,-40 -14,-8 -36,-45 -51,-81 -14,-36 -37,-76 -50,-90 -14,-14 -24,-66 -24,-116 0,-51 -9,-93 -19,-93 -10,0 -18,-19 -19,-42 0,-109 -14,-121 -145,-131 -69,-5 -127,-19 -132,-31 -4,-10 -18,-20 -30,-20 -14,0 -59,-34 -100,-75 -74,-74 -135,-86 -135,-27 0,15 -9,27 -19,27 -6,0 -15,6 -28,16l0 2675c4,3 8,4 13,4 8,0 16,15 16,36 0,20 15,51 35,69 47,47 62,104 41,161 -19,49 8,183 37,183 8,0 20,24 26,56 8,30 19,56 28,56 7,0 21,60 27,135 8,74 23,141 33,148 11,6 29,85 39,177 11,91 27,171 35,176 27,18 29,304 2,313 -13,4 -23,39 -23,79 0,40 10,76 23,81 18,8 18,13 -1,27 -17,12 -24,70 -25,184 -1,217 -2,213 31,213 16,0 28,14 28,31 0,17 15,41 33,55 22,16 33,50 33,105 0,74 3,81 51,86 68,8 69,65 3,125 -48,44 -48,47 -16,79 23,24 35,27 41,10 9,-26 98,-32 98,-6 0,8 17,20 38,25 43,12 51,70 7,70 -25,0 -25,3 2,31 25,24 34,26 46,7 12,-18 23,-15 51,12 41,41 140,45 152,4 6,-13 20,-33 34,-41 16,-8 26,-48 26,-100 0,-49 11,-95 27,-112 27,-26 39,-113 31,-202 -1,-20 -20,-53 -41,-72 -21,-19 -35,-44 -31,-56 10,-31 108,-53 177,-41 50,9 61,21 72,76 11,61 17,64 66,54 51,-12 54,-9 54,55 0,67 49,148 78,130 8,-5 16,-28 16,-52 0,-27 18,-52 50,-69l0 0 0 0z"/>
  <path class="fil1" d="M1940 1901c10,13 29,26 43,26 13,0 24,5 24,13 0,7 11,13 26,13 15,0 26,6 26,13 0,9 84,13 226,13 221,0 226,0 257,-32 18,-18 33,-47 33,-66 0,-18 6,-33 14,-33 6,0 13,-18 13,-40 0,-22 6,-40 13,-40 7,0 13,-18 13,-40 0,-21 6,-39 14,-39 6,0 13,-18 13,-40 0,-21 6,-39 13,-39 7,0 13,-12 13,-27 0,-15 6,-26 14,-26 6,0 13,-18 13,-41 0,-21 6,-39 12,-39 8,0 14,-16 14,-34 0,-41 28,-72 66,-72 18,0 26,9 26,27 0,15 6,26 14,26 7,0 13,12 13,27 0,14 6,26 13,26 8,0 13,16 13,37 0,21 12,45 27,55 14,11 26,30 26,43 0,13 6,24 14,24 7,0 14,19 14,42 1,25 4,36 8,27 3,-10 29,-16 58,-16 29,0 52,-6 52,-14 0,-7 12,-13 27,-13 14,0 26,-6 26,-13 0,-8 23,-13 53,-13 29,0 53,-6 53,-14 0,-7 23,-13 53,-13 29,0 53,-6 53,-13 0,-8 18,-13 39,-13 22,0 40,-6 40,-14 0,-7 36,-12 83,-12 68,0 87,4 103,26 9,15 26,26 36,26 20,0 162,139 162,159 0,9 8,24 20,35 10,11 19,13 19,6 0,-8 11,-14 24,-14 13,0 32,-13 42,-27 11,-15 28,-26 38,-26 28,0 55,-35 55,-72 0,-19 6,-34 13,-34 8,0 13,-18 13,-40 0,-31 6,-39 27,-39 18,0 26,-10 26,-27 0,-15 6,-26 14,-26 7,0 12,-33 12,-73 0,-69 5,-78 60,-133 33,-33 69,-59 79,-59 12,0 20,-12 20,-27 0,-14 7,-26 14,-26 8,0 13,-24 13,-53 0,-30 6,-53 14,-53 7,0 12,-24 12,-53 0,-30 7,-53 14,-53 9,0 13,-69 13,-179l0 -180 -80 -77c-43,-43 -79,-88 -79,-99 0,-11 -5,-21 -13,-21 -7,0 -14,-23 -14,-53 0,-28 -5,-53 -12,-53 -8,0 -14,-18 -14,-39 0,-22 -5,-40 -13,-40 -7,0 -14,-17 -14,-39 0,-22 -5,-40 -12,-40 -8,0 -14,-17 -14,-40 0,-22 -5,-40 -13,-40 -7,0 -13,-12 -13,-26 0,-17 -9,-27 -27,-27 -14,0 -26,-5 -26,-13 0,-3 -4,-6 -9,-8l-1958 0c-2,4 -4,10 -4,16 0,12 -18,38 -40,58 -21,21 -39,47 -39,58 0,13 -12,22 -27,22 -15,0 -26,9 -26,21 0,25 -113,137 -139,137 -11,0 -20,7 -20,14 0,8 -10,13 -21,13 -25,0 -59,32 -59,53 0,26 -36,53 -72,53 -18,0 -33,6 -33,14 0,7 -18,12 -40,12 -22,0 -40,7 -40,14 0,7 -12,13 -26,13 -15,0 -27,6 -27,13 0,8 -18,13 -39,13 -22,0 -40,7 -40,14 0,7 -18,13 -39,13 -23,0 -41,6 -41,13 0,8 -18,13 -39,13 -22,0 -40,6 -40,14 0,7 -35,13 -79,13 -44,0 -80,6 -80,13 0,19 -66,16 -67,-3 -1,-14 -2,-14 -7,0 -8,19 -124,22 -124,3 0,-7 -12,-13 -26,-13 -15,0 -27,-6 -27,-13 0,-8 -17,-14 -37,-14 -21,0 -44,-10 -56,-26 -10,-15 -34,-27 -53,-27 -18,0 -42,-11 -53,-26 -9,-15 -30,-27 -42,-27 -15,0 -24,-9 -24,-26 0,-15 -6,-27 -13,-27 -7,0 -13,-11 -13,-26 0,-20 8,-27 39,-27 32,0 40,-5 40,-26 0,-17 -8,-27 -26,-27 -15,0 -27,-5 -27,-12 0,-8 -11,-14 -26,-14 -23,0 -26,-9 -26,-66 0,-57 3,-66 26,-66 15,0 26,-5 26,-10 0,-6 -11,-19 -26,-30 -29,-20 -37,-93 -12,-93 9,0 27,14 41,29 20,24 24,25 24,6 0,-10 -15,-34 -35,-56l-503 0 0 1477c20,-17 35,-26 41,-26 11,0 20,-7 20,-14 0,-7 15,-13 33,-13 18,0 34,6 34,13 0,7 9,14 20,14 12,0 50,29 85,65 36,37 74,67 86,67 11,0 20,5 20,13 0,7 18,14 40,14 22,0 39,5 39,12 0,8 38,14 88,14 89,0 124,16 124,58 0,12 6,21 14,21 7,0 13,24 13,53 0,29 6,53 13,53 8,0 13,39 13,92 0,53 6,93 14,93 7,0 12,12 12,26 0,15 7,26 14,26 8,0 13,12 13,25 0,13 12,32 26,42 15,11 27,30 27,43 0,12 6,23 14,23 7,0 12,9 12,21 0,12 18,38 41,58 21,21 39,47 39,59 0,11 6,21 14,21 7,0 12,10 12,24 0,13 12,32 27,42 15,11 26,30 26,43 0,12 7,23 14,23 7,0 13,11 13,24 0,13 11,32 26,43 15,10 27,26 27,36 0,9 7,26 17,36 28,33 87,24 129,-19 20,-23 44,-41 55,-41 9,0 26,-11 37,-26 12,-15 34,-26 56,-26 20,0 37,-6 37,-13 0,-8 12,-14 27,-14 16,0 26,-8 26,-26 0,-14 5,-27 13,-27 7,0 13,-10 13,-23 0,-13 12,-32 27,-43 14,-10 26,-27 26,-37 0,-10 17,-35 40,-56 22,-20 39,-46 39,-58 0,-12 6,-21 14,-21 7,0 12,-17 12,-39 0,-23 7,-41 14,-41 7,0 13,-11 13,-26 0,-15 9,-26 21,-26 12,0 38,-17 58,-40 21,-22 47,-40 58,-40 13,0 22,-8 22,-20 0,-28 60,-85 90,-85 12,0 31,12 42,27l0 0 0 0z"/>
  <path class="fil1" d="M5774 1029c5,154 17,274 25,278 9,3 16,19 16,36 0,16 7,29 14,29 7,0 19,18 24,40 6,21 24,42 41,47 17,5 35,23 40,40 5,16 22,34 38,40 18,5 34,30 39,63 7,30 18,55 26,55 8,0 15,14 15,31 0,18 6,32 14,32 8,0 18,26 24,59 5,34 23,70 41,83 17,12 32,33 32,45 0,13 23,-3 54,-35 29,-32 61,-57 71,-57 8,0 33,-18 55,-40 22,-21 46,-39 56,-39 9,0 17,-11 17,-24 0,-14 7,-24 16,-24 9,0 34,-17 56,-39 22,-21 46,-39 54,-39 8,0 50,-36 94,-80 44,-43 89,-78 99,-78 11,0 33,-18 50,-41 16,-21 43,-39 58,-39 19,0 30,-11 30,-29 0,-18 15,-34 38,-40 47,-11 63,-49 33,-76 -52,-47 -71,-60 -86,-60 -9,0 -17,-14 -17,-32 0,-17 -9,-31 -22,-31 -13,0 -70,-46 -127,-102 -57,-57 -114,-103 -127,-103 -13,0 -23,-11 -23,-24 0,-13 -8,-24 -17,-24 -10,0 -51,-36 -92,-79 -42,-43 -87,-78 -100,-78 -19,0 -25,-48 -34,-288 -6,-169 -17,-292 -26,-295 -9,-2 -16,-53 -16,-111l-2132 0c0,2 0,4 0,6 0,23 7,40 14,40 9,0 20,36 25,79 7,43 17,79 26,79 7,0 14,19 15,44 0,24 5,35 11,24 7,-9 46,-23 87,-28 42,-7 74,-18 74,-26 0,-7 72,-14 159,-14 94,0 158,-6 158,-16 0,-9 66,-15 165,-15 101,0 166,6 166,15 0,9 18,16 40,16 22,0 40,6 40,14 0,8 45,19 102,24 57,7 103,18 103,26 0,8 50,15 110,15 61,0 110,6 110,15 0,7 23,19 48,24 27,6 48,17 48,25 0,9 13,15 29,15 32,0 49,29 49,80 0,16 7,30 16,30 9,0 16,58 16,142 0,78 6,143 14,143 7,0 18,122 24,272l0 0 0 0z"/>
  <path class="fil1" d="M6352 1863c0,8 -15,15 -32,15 -18,0 -31,11 -31,24 0,14 -8,24 -17,24 -10,0 -27,10 -40,22 -26,27 -29,56 -6,56 9,0 15,18 15,41 0,21 7,39 16,39 8,0 20,28 25,63 7,35 17,63 25,63 7,0 13,18 13,40 0,21 7,39 15,39 9,0 20,32 26,71 6,39 17,71 25,71 7,0 14,18 14,39 0,23 6,41 14,41 8,0 19,35 25,78 6,43 17,79 25,79 8,0 14,11 14,24 0,13 6,24 15,24 7,0 19,35 25,78 6,44 17,80 25,80 8,0 15,17 15,39 0,21 6,39 13,39 9,0 19,36 26,80 6,43 17,78 25,78 8,0 14,15 14,32 0,17 6,31 15,31 7,0 19,35 25,79 5,43 17,79 24,79 9,0 15,18 15,39 0,23 -6,40 -15,40 -7,0 -19,49 -24,111 -6,60 -18,110 -25,110 -9,0 -15,29 -15,63 0,35 -6,64 -14,64 -8,0 -20,60 -25,134 -7,74 -18,134 -26,134 -7,0 -13,36 -13,79 0,44 -7,79 -15,79 -8,0 -19,60 -26,134 -6,74 -17,135 -25,135 -8,0 -14,28 -14,63 0,34 -6,63 -14,63 -8,0 -19,36 -25,79 -6,43 -17,78 -25,78 -8,0 -14,11 -14,23 0,12 -10,26 -20,31 -16,8 -16,12 0,19 10,5 20,27 20,47 0,21 6,38 14,38 8,0 20,22 25,48 5,26 17,47 25,47 8,0 14,14 14,32 0,17 8,31 16,31 11,0 17,113 18,304 2,220 5,276 13,203 6,-56 19,-105 28,-108 11,-3 18,-20 18,-36 0,-17 11,-31 25,-31 12,0 23,-10 23,-23 0,-14 7,-24 16,-24 8,0 16,-8 16,-16 0,-10 18,-35 39,-56 33,-33 40,-55 40,-125 0,-54 -9,-93 -24,-108 -14,-15 -24,-53 -24,-97 0,-66 4,-72 40,-72 35,0 39,-7 39,-55 0,-30 6,-56 15,-56 7,0 18,-17 23,-39 5,-21 17,-39 25,-39 25,0 18,-43 -8,-53 -13,-5 -23,-28 -23,-50 0,-21 -8,-39 -16,-39 -9,0 -16,-15 -16,-32 0,-18 -7,-32 -15,-32 -7,0 -19,-21 -24,-47 -6,-26 -17,-47 -26,-47 -7,0 -14,-18 -14,-40 0,-21 -7,-39 -15,-39 -10,0 -16,-14 -16,-32 0,-17 -8,-32 -16,-32 -9,0 -16,-31 -16,-71 0,-39 7,-71 16,-71 8,0 16,-18 16,-39 0,-22 6,-39 16,-39 8,0 15,-11 15,-24 0,-13 7,-24 16,-24 9,0 16,-17 16,-38 0,-21 11,-49 25,-63 31,-32 85,-33 85,-1 0,12 8,23 17,23 10,0 29,13 44,26 24,26 26,25 31,-13 4,-29 17,-45 44,-51 27,-8 38,-20 38,-49 0,-21 7,-39 16,-39 8,0 16,-15 16,-32 0,-17 10,-32 23,-32 14,0 24,-6 24,-15 0,-9 11,-16 24,-16 17,0 24,-17 24,-63 0,-35 6,-63 16,-63 8,0 16,-11 16,-24 0,-13 5,-24 14,-24 7,0 17,-17 21,-39 5,-27 0,-39 -14,-39 -12,0 -22,-15 -22,-32 0,-17 7,-32 15,-32 7,0 19,-43 25,-97 10,-78 20,-106 57,-142 26,-25 57,-45 70,-45 13,0 22,-7 22,-16 0,-8 12,-15 25,-15 16,0 23,-16 23,-48 0,-27 6,-48 15,-48 8,0 19,-13 25,-31 5,-17 23,-31 39,-31 23,0 33,-16 42,-59 7,-41 32,-81 79,-126 38,-38 69,-75 69,-83 0,-10 10,-17 23,-17 14,0 25,-14 25,-32 0,-20 10,-30 29,-30 43,0 81,-17 81,-35 0,-27 -44,-61 -78,-61 -24,0 -32,-9 -32,-39 0,-29 8,-39 31,-39 33,0 36,-10 32,-89 -2,-45 2,-50 54,-58 31,-6 67,-20 79,-33 34,-34 30,-85 -7,-97 -36,-11 -42,-33 -13,-44 51,-18 -19,-35 -144,-35 -108,0 -144,-5 -165,-26 -14,-15 -26,-34 -26,-44 0,-9 -7,-17 -14,-17 -9,0 -19,-36 -25,-79 -6,-44 -17,-79 -26,-79 -7,0 -14,-42 -14,-93 0,-59 -7,-97 -20,-102 -16,-8 -16,-12 0,-19 13,-6 20,-44 20,-103 0,-52 8,-93 16,-93 9,0 16,-17 16,-38 0,-22 11,-49 23,-63 14,-13 25,-27 25,-34 0,-24 128,-133 156,-133 18,0 33,-9 33,-17 0,-10 10,-28 23,-40 12,-12 29,-23 39,-23 9,0 17,-18 17,-39 0,-35 7,-40 54,-40 85,0 103,-13 103,-72 0,-30 8,-54 16,-54 10,0 16,-11 16,-23 0,-15 15,-25 39,-25 25,0 42,-10 48,-30 5,-18 20,-32 33,-32 13,0 46,-25 75,-53 29,-30 67,-58 86,-65 18,-5 38,-25 44,-43 15,-46 92,-124 123,-124 15,0 27,-6 27,-16 0,-8 13,-16 30,-16 18,0 32,7 32,15 0,4 7,11 18,15l0 -392 -44 0c-16,4 -59,38 -98,78 -42,44 -86,80 -95,80 -10,0 -17,14 -17,31 0,19 -11,31 -25,31 -15,0 -47,21 -72,48 -25,25 -52,48 -60,48 -8,0 -19,13 -24,30 -6,18 -24,32 -41,32 -16,0 -30,11 -30,24 0,13 -9,24 -18,24 -11,0 -35,18 -55,39 -20,22 -48,40 -62,40 -12,0 -24,11 -24,23 0,13 -7,24 -17,24 -8,0 -50,36 -92,79 -41,44 -87,79 -102,79 -14,0 -25,12 -25,30 0,18 -15,33 -39,39 -21,6 -43,24 -48,41 -5,17 -23,35 -40,40 -16,5 -34,23 -39,40 -6,17 -24,31 -41,31 -16,0 -30,10 -30,24 0,13 -9,24 -17,24 -10,0 -53,34 -95,78 -43,43 -85,79 -95,79 -8,0 -51,35 -92,80 -41,42 -87,78 -100,78 -14,0 -30,14 -35,31 -6,17 -24,35 -41,40 -15,5 -33,23 -39,40 -5,17 -22,31 -38,31 -16,0 -41,18 -58,39 -16,22 -38,40 -50,40 -10,0 -19,11 -19,24 0,12 -12,23 -24,23 -13,0 -48,24 -75,54 -29,29 -68,57 -86,63 -19,7 -39,25 -45,42 -4,16 -23,34 -40,39 -17,5 -31,17 -31,24 0,9 -10,15 -23,15 -13,0 -23,11 -23,24 0,13 -12,24 -25,24 -12,0 -23,7 -23,16l0 0z"/>
  <path class="fil1" d="M6825 1023c0,19 15,34 40,40 21,5 42,23 47,40 6,17 24,35 40,41 16,5 34,23 40,40 14,45 35,38 112,-40 38,-40 76,-71 86,-71 8,0 16,-11 16,-25 0,-12 10,-23 23,-23 14,0 59,-36 102,-79 42,-44 84,-79 94,-79 9,0 18,-10 18,-24 0,-13 14,-23 29,-23 17,0 35,-14 41,-31 5,-17 24,-35 41,-40 17,-6 31,-16 31,-23 0,-24 59,-80 84,-80 14,0 26,-11 26,-23 0,-14 8,-25 18,-25 8,0 52,-35 94,-78 42,-43 85,-80 94,-80 9,0 44,-28 76,-63 33,-35 72,-63 86,-63 16,0 27,-12 27,-30 0,-18 15,-33 38,-39 21,-6 43,-24 49,-41 5,-17 23,-35 39,-40 17,-5 35,-23 40,-40 5,-17 23,-31 40,-31 17,0 31,-10 31,-23 0,-14 7,-24 17,-24 7,0 32,-20 60,-46l-2083 0c3,44 8,78 15,80 9,3 20,124 26,278 9,244 13,273 40,280 16,6 30,15 30,23 0,20 57,80 76,80 9,0 18,11 18,24 0,12 10,23 23,23 14,0 70,46 125,103 55,57 112,102 126,102 15,0 25,13 25,30l0 0 0 0z"/>
  <path class="fil1" d="M5595 4500c0,-22 -20,-24 -186,-14 -102,7 -188,17 -191,26 -3,8 -48,15 -98,15 -52,0 -94,7 -94,16 0,8 -18,15 -39,15 -20,0 -48,11 -61,24 -13,13 -32,23 -41,23 -9,0 -17,7 -17,16 0,9 -14,16 -32,16 -18,0 -36,11 -41,24 -7,17 -34,23 -102,23 -52,0 -93,8 -93,15 0,9 -25,20 -54,26 -52,9 -53,12 -61,98 -4,49 -16,91 -25,95 -37,12 -17,69 46,130 56,52 63,67 54,107 -5,24 -23,55 -41,67 -17,13 -35,50 -40,82 -10,58 -12,59 -78,59 -52,0 -70,8 -78,30 -12,40 5,78 39,89 17,5 33,32 40,65 8,49 4,62 -36,101 -26,24 -64,49 -84,55 -41,14 -89,55 -62,55 9,0 16,26 16,55 0,31 -7,56 -15,56 -9,0 -16,14 -16,31 0,28 -11,32 -70,32 -62,0 -70,5 -80,41 -5,23 -20,52 -31,64 -26,25 -88,29 -88,6 0,-10 -63,-16 -158,-16 -147,0 -158,2 -158,32 0,17 -7,31 -16,31 -8,0 -16,10 -16,24 0,13 -10,23 -23,23 -14,0 -24,11 -24,25 0,12 -8,23 -16,23 -9,0 -16,14 -16,32 0,17 -11,31 -23,31 -13,0 -25,11 -25,24 0,12 -6,23 -14,23 -10,0 -16,11 -16,24 0,13 -11,24 -25,24 -12,0 -23,11 -23,25 0,14 -29,53 -63,87 -35,35 -64,73 -64,86 0,12 -6,23 -15,23 -9,0 -16,15 -16,34 0,18 -18,50 -40,70 -21,20 -39,45 -39,55 0,10 -12,27 -26,38 -32,23 -16,81 26,95 17,5 34,23 40,40 10,31 55,44 55,15 0,-8 38,-16 87,-16 48,0 86,8 86,16 0,9 28,16 62,16 34,0 65,8 68,17 4,12 96,18 283,20 236,2 280,7 304,29 13,15 26,34 26,43 0,31 81,97 119,97 21,0 39,6 39,15 0,9 10,16 23,16 14,0 25,11 25,24 0,17 16,23 63,24 46,0 63,-7 63,-24 0,-13 -7,-24 -16,-24 -9,0 -16,-10 -16,-22 0,-13 -9,-25 -19,-30 -14,-4 -13,-12 6,-32 29,-29 156,-37 156,-11 0,38 69,12 124,-47 33,-36 75,-63 94,-63 21,0 34,-10 34,-26 0,-14 17,-40 36,-57 29,-25 53,-29 145,-24 66,3 112,13 115,24 8,23 130,27 130,6 0,-8 18,-19 40,-25 22,-5 40,-17 40,-25 0,-9 7,-15 17,-15 8,0 26,-10 38,-20 56,-51 72,-59 102,-59 18,0 32,-7 32,-16 0,-9 29,-20 63,-26 35,-5 63,-16 63,-23 0,-8 14,-14 31,-14 16,0 33,-9 36,-20 4,-12 51,-21 120,-25 62,-3 113,-13 113,-20 0,-8 25,-14 57,-14 45,0 69,-13 119,-64 35,-35 73,-62 86,-62 12,0 23,-8 23,-16 0,-10 10,-16 23,-16 14,0 25,-7 25,-16 0,-8 16,-20 39,-25 21,-6 39,-16 39,-25 0,-7 14,-13 30,-13 25,0 30,-18 40,-152 5,-82 5,-365 -1,-628 -10,-419 -14,-478 -37,-499 -15,-13 -32,-51 -38,-83 -6,-33 -17,-59 -26,-59 -8,0 -15,-25 -15,-54l0 -54 -177 -6c-122,-4 -178,-11 -183,-25 -3,-11 -23,-19 -44,-19 -21,0 -38,-6 -38,-15 0,-7 -26,-18 -55,-24 -31,-6 -55,-17 -55,-26 0,-7 -12,-15 -25,-15 -12,0 -23,-8 -23,-18 0,-9 -14,-29 -30,-43 -16,-14 -34,-41 -40,-61 -6,-20 -24,-35 -42,-35 -17,0 -30,-11 -30,-27l0 0 0 0z"/>
  <path class="fil1" d="M5117 6947c0,-24 -118,-45 -167,-29 -25,8 -39,28 -39,58 0,36 -10,45 -47,45 -25,0 -46,9 -46,18 0,11 -10,19 -20,19 -11,0 -39,22 -63,47 -43,48 -161,68 -161,29 0,-11 -15,-19 -33,-19 -20,1 -24,6 -11,14 31,20 63,90 63,136 0,37 -7,40 -71,30 -38,-6 -59,-6 -46,0 13,5 23,22 23,37 0,14 12,31 26,37 13,5 36,38 49,74 15,36 37,64 50,64 14,0 25,13 25,29 0,15 9,28 18,28 11,0 20,21 20,46 0,27 -9,48 -20,48 -9,0 -18,24 -18,56 0,31 9,56 18,56 11,0 20,11 20,23 0,14 14,37 32,54 97,87 107,114 107,286 1,117 -6,169 -23,175 -13,4 -23,19 -23,33 0,13 -18,30 -42,38 -46,15 -102,64 -72,64 11,0 25,22 31,47 8,25 19,47 27,47 7,0 25,38 38,84 12,46 30,84 39,84 8,0 21,21 27,47 7,26 19,47 28,47 8,0 21,30 29,65 13,73 18,74 139,41 65,-17 83,-31 79,-55 -5,-18 -15,-33 -25,-33 -9,0 -17,-55 -17,-122 0,-66 8,-121 16,-121 10,0 21,-40 27,-87 5,-48 21,-93 35,-102 19,-13 19,-17 2,-17 -13,0 -24,-21 -24,-46 0,-27 8,-48 16,-48 10,0 22,-17 27,-37 7,-28 25,-37 68,-37 64,0 63,2 66,-188 1,-66 3,-190 6,-276l5 -153 67 0c60,0 64,-5 53,-43 -8,-23 -18,-46 -25,-52 -6,-4 -23,-31 -38,-60 -21,-41 -22,-66 -4,-124 11,-39 21,-137 21,-215 0,-82 8,-143 19,-143 10,0 18,-11 18,-26 0,-21 -8,-23 -47,-5 -25,12 -46,28 -46,35 0,9 -47,15 -103,15 -57,0 -103,-8 -103,-18l0 0z"/>
  <path class="fil1" d="M5461 6951c-8,0 -14,78 -14,174 0,95 -7,174 -14,174 -24,0 -32,80 -8,90 12,4 22,21 22,38 0,16 6,30 15,30 21,0 38,100 26,149 -8,33 -20,40 -66,40l-55 0 0 135c0,78 -6,133 -16,133 -8,0 -14,22 -14,48 0,26 6,47 14,47 10,0 16,15 16,33 0,18 11,44 25,56 12,13 23,16 23,7 0,-9 25,-17 55,-17 31,0 56,7 56,14 0,9 15,21 33,26 42,14 150,121 164,164 5,18 17,33 24,33 9,0 15,25 15,55 0,31 8,55 16,55 10,0 16,18 16,40 0,25 10,39 24,39 13,0 24,11 24,24 0,13 7,24 16,24 8,0 15,18 15,39 0,25 9,39 24,39 20,0 24,30 24,167 0,99 -6,166 -16,166 -8,0 -16,27 -16,62 0,35 8,64 16,64 9,0 16,10 16,23 0,14 6,25 14,25 7,0 18,28 23,62 19,119 51,67 43,-66 -3,-37 3,-44 38,-44 22,0 40,-6 40,-15 0,-9 11,-16 24,-16 22,0 22,-3 1,-24 -12,-13 -41,-23 -63,-23 -33,0 -42,-8 -42,-41 0,-21 -6,-39 -15,-39 -9,0 -16,-44 -16,-103 0,-58 -7,-102 -16,-102 -9,0 -15,-25 -15,-55 0,-38 -7,-55 -24,-55 -29,0 -32,-58 -5,-69 16,-7 16,-9 0,-10 -12,0 -19,-29 -19,-88 0,-81 3,-87 40,-87 35,0 39,-6 39,-56 0,-61 21,-91 76,-109 19,-5 35,-17 35,-25 0,-9 11,-15 23,-15 13,0 24,7 24,16 0,8 19,16 42,16 36,0 40,5 32,44 -10,48 17,106 31,70 5,-10 26,-19 46,-19 27,0 38,9 38,30 0,18 15,36 35,42 56,17 76,48 76,114 0,42 8,66 24,72 12,5 23,24 23,41 0,18 7,33 16,33 22,0 20,105 -1,113 -10,3 -22,39 -26,80 -5,42 -15,74 -22,74 -8,0 -14,11 -14,25 0,13 -7,23 -16,23 -8,0 -16,32 -16,72 0,49 -7,74 -24,81 -14,5 -23,29 -23,62 0,30 -8,54 -16,54 -23,0 -19,43 4,51 35,12 75,-8 75,-36 0,-16 14,-34 31,-39 17,-6 35,-24 40,-39 6,-17 23,-35 40,-40 15,-5 33,-23 39,-40 5,-17 27,-32 51,-34 45,-5 45,-6 -36,-74 -28,-23 -21,-115 9,-126 20,-6 20,-77 0,-84 -8,-3 -20,-49 -26,-104 -6,-54 -16,-99 -24,-99 -7,0 -13,-50 -13,-110 0,-64 6,-111 15,-111 9,0 16,-24 16,-55 0,-35 9,-60 24,-66 13,-4 24,-22 24,-38 0,-17 6,-31 16,-31 8,0 16,-10 16,-23 0,-14 7,-24 18,-24 9,0 34,-17 54,-40 20,-21 47,-39 61,-39 14,0 24,-6 24,-15 0,-8 43,-20 95,-26 53,-5 95,-17 95,-24 0,-8 18,-14 39,-14 32,0 39,-8 39,-38 0,-25 -10,-43 -29,-48 -19,-6 -34,-31 -41,-64 -5,-30 -16,-56 -25,-56 -8,0 -15,-10 -15,-23 0,-13 -6,-23 -14,-23 -8,0 -19,-26 -24,-56 -6,-30 -18,-55 -25,-55 -9,0 -16,-11 -16,-24 0,-13 -7,-24 -16,-24 -9,0 -15,-14 -15,-32 0,-18 -12,-36 -24,-41 -13,-5 -24,-22 -24,-39 0,-16 -7,-30 -15,-30 -9,0 -16,-10 -16,-23 0,-14 -7,-24 -14,-24 -9,0 -19,-18 -24,-40 -6,-21 -17,-39 -26,-39 -8,0 -16,-10 -16,-24 0,-13 -6,-23 -16,-23 -8,0 -15,-14 -15,-30 0,-16 -17,-43 -39,-58 -21,-16 -42,-46 -47,-66 -6,-20 -16,-36 -25,-36 -8,0 -15,-14 -15,-32 0,-17 -7,-32 -15,-32 -9,0 -19,-38 -26,-86 -6,-48 -17,-87 -24,-87 -9,0 -15,-56 -15,-126 0,-74 8,-126 16,-126 10,0 16,-29 16,-64 0,-70 -26,-83 -63,-32 -12,17 -42,35 -66,41 -25,5 -45,17 -45,24 0,9 -10,15 -24,15 -14,0 -53,28 -88,63 -52,52 -73,63 -125,63 -35,0 -62,7 -62,16 0,8 -43,16 -96,16 -52,0 -94,6 -94,14 0,8 -21,19 -48,25 -25,6 -47,17 -47,25 0,9 -17,15 -39,15 -22,0 -40,6 -40,15 0,7 -31,19 -69,25 -70,10 -70,11 -81,88 -6,42 -17,77 -25,77l0 0z"/>
  <path class="fil1" d="M6506 6645c0,48 6,87 13,87 8,0 19,42 25,91 7,66 19,99 41,115 17,12 36,45 41,74 6,31 22,55 40,60 15,5 33,27 39,48 5,21 16,38 24,38 7,0 14,14 14,31 0,16 10,34 23,39 14,4 24,23 24,41 0,17 7,32 16,32 9,0 15,11 15,23 0,14 7,25 15,25 7,0 18,17 23,39 7,21 17,39 26,39 8,0 16,11 16,24 0,13 6,24 13,24 9,0 19,25 25,55 6,30 18,55 25,55 9,0 16,11 16,24 0,13 5,23 14,23 7,0 18,26 24,55 5,31 17,57 26,57 8,0 14,7 14,16 0,9 11,28 24,41 13,12 24,41 24,62 0,21 7,38 16,38 8,0 16,11 16,24 0,13 6,24 16,24 8,0 16,14 16,32 0,18 10,36 23,41 13,5 23,22 23,39 0,16 8,30 16,30 7,0 20,26 25,59 7,33 25,71 41,85 16,14 29,34 29,43 0,10 7,18 14,18 7,0 19,25 24,55 7,31 17,55 26,55 8,0 15,11 15,25 0,12 6,23 14,23 8,0 18,25 25,55 5,31 17,55 25,55 8,0 15,11 15,24 0,13 6,24 15,24 7,0 19,14 24,29 7,22 31,34 82,42 45,6 87,25 111,48 21,22 49,39 61,39 13,0 23,7 23,15 0,9 8,16 17,16 43,0 62,48 62,156 0,60 6,113 15,115 24,9 28,381 5,389 -12,3 -20,20 -20,37 0,16 -6,30 -15,30 -8,0 -20,25 -25,56 -7,29 -17,55 -25,55 -8,0 -14,10 -14,23 0,14 -7,25 -15,25 -9,0 -20,16 -26,39 -5,21 -17,39 -24,39 -7,0 -14,10 -14,24 0,13 -7,24 -16,24 -8,0 -16,11 -16,25 0,47 -88,116 -149,116 -29,0 -64,11 -77,25 -13,12 -29,23 -34,23 -28,0 -55,52 -65,124 -6,44 -17,81 -24,81 -7,0 -14,18 -14,40 0,22 -7,39 -16,39 -8,0 -15,12 -15,24 0,14 -18,42 -40,62 -22,20 -40,44 -40,55 0,11 -36,18 -102,18 -58,0 -102,6 -102,16 0,8 -26,15 -56,15 -46,0 -55,6 -55,32 0,42 -32,74 -85,87 -23,6 -41,17 -41,24 0,9 -15,15 -32,15 -17,0 -32,7 -32,16 0,9 -11,16 -23,16 -14,0 -25,6 -25,15 0,4 -7,9 -20,15l1921 0 0 -574c-2,-1 -3,-2 -5,-2 -16,-6 -34,-24 -39,-40 -6,-17 -24,-35 -41,-40 -17,-5 -35,-26 -40,-47 -5,-22 -16,-40 -23,-40 -9,0 -15,-13 -15,-30 0,-18 -7,-32 -16,-32 -8,0 -16,-23 -16,-52 0,-36 12,-60 40,-81 23,-16 40,-45 40,-67 0,-20 7,-37 16,-37 8,0 15,-14 15,-32 0,-17 8,-31 16,-31 30,0 15,-49 -29,-95 -25,-27 -56,-48 -69,-48 -31,0 -45,-33 -45,-111l0 -62c18,-17 1,25 1,-97 0,-18 -42,-74 -95,-126 -52,-52 -94,-100 -94,-109 0,-8 -36,-51 -80,-93 -75,-74 -78,-81 -78,-164 0,-49 -7,-90 -17,-93 -9,-4 -20,-48 -23,-100 -4,-52 -15,-97 -23,-99 -9,-4 -16,-24 -16,-45 0,-20 -7,-38 -15,-38 -9,0 -20,-32 -26,-71 -6,-39 -17,-71 -24,-71 -8,0 -15,-53 -15,-118 0,-68 -6,-119 -16,-119 -8,0 -16,-20 -16,-46 0,-25 -7,-48 -16,-52 -12,-4 -22,-68 -26,-171 -4,-91 -14,-167 -21,-171 -22,-7 -18,-49 8,-75 13,-12 20,-34 14,-46 -6,-16 2,-24 32,-24 25,0 41,10 41,24 0,11 10,26 20,30 16,8 16,12 0,19 -27,13 -24,39 5,39 12,0 23,-14 23,-32 0,-17 7,-32 16,-32 8,0 16,-7 16,-17 0,-9 11,-28 26,-43 20,-19 28,-21 33,-6 4,13 19,7 44,-20 21,-22 48,-40 62,-40 14,0 24,-7 24,-16 0,-8 11,-16 22,-16 13,0 35,-11 50,-26 25,-26 28,-26 42,0 7,15 25,26 39,26 13,0 39,15 55,34 16,19 29,26 29,16 0,-23 61,53 14,-34l-198 -197c-108,-109 -207,-198 -220,-198 -13,0 -22,-6 -22,-16 0,-8 -9,-16 -17,-16 -19,0 -63,-39 -63,-56 0,-6 -13,-22 -29,-36 -16,-14 -34,-42 -41,-61 -6,-20 -18,-36 -25,-36 -20,0 -19,-106 0,-113 8,-2 17,-23 20,-45 3,-29 -4,-40 -31,-44 -19,-2 -39,-18 -44,-35 -5,-17 -16,-31 -24,-31 -9,0 -15,-17 -15,-38 0,-21 -8,-41 -16,-43 -8,-4 -20,-58 -26,-120 -6,-64 -16,-114 -24,-114 -7,0 -14,-23 -14,-48 0,-27 -5,-48 -13,-48 -8,0 -18,-22 -24,-50 -5,-26 -23,-60 -39,-75 -16,-14 -34,-48 -39,-78 -5,-30 -23,-65 -40,-80 -16,-13 -34,-40 -41,-59 -5,-20 -23,-39 -39,-44 -18,-6 -34,-31 -40,-64 -5,-31 -17,-55 -25,-55 -8,0 -15,-14 -15,-31 0,-15 -7,-32 -15,-35 -7,-3 -20,-85 -25,-183 -7,-97 -18,-178 -26,-178 -7,0 -13,-10 -13,-23 0,-14 -7,-24 -15,-24 -10,0 -16,-31 -16,-69 0,-60 -6,-71 -39,-79 -22,-6 -43,-24 -48,-42 -12,-35 -33,-41 -46,-11 -6,14 -13,11 -26,-9 -20,-33 -142,-32 -142,1 0,11 -6,19 -16,19 -8,0 -16,29 -16,64 0,57 -3,63 -39,63 -32,0 -39,8 -39,39 0,25 8,40 23,40 35,0 35,256 -1,291 -14,14 -31,25 -37,25 -7,0 -18,24 -23,51 -6,29 -28,66 -49,82 -22,15 -39,42 -39,59 0,16 -8,28 -16,28 -10,0 -16,43 -16,95 0,60 -7,95 -20,99 -14,4 -21,68 -24,223 -4,118 -12,216 -20,216 -9,0 -15,35 -15,78 0,43 7,79 16,79 9,0 15,50 15,119 0,69 -6,119 -15,119 -9,0 -16,39 -16,86l0 0 0 0z"/>
  <path class="fil1" d="M7011 8007c0,8 -41,18 -89,25 -57,6 -99,21 -115,39 -13,16 -41,34 -60,40 -19,5 -39,24 -44,41 -6,17 -16,31 -25,31 -8,0 -15,7 -15,17 0,9 -10,27 -23,40 -14,14 -24,45 -24,70 0,25 -7,47 -16,47 -9,0 -16,36 -16,79 0,43 6,78 14,78 7,0 18,45 24,99 5,55 17,102 26,105 21,6 20,144 0,144 -9,0 -16,18 -16,40 0,29 8,39 31,39 17,0 32,11 32,23 0,14 14,25 31,25 18,0 32,-11 32,-25 0,-12 7,-23 16,-23 8,0 15,-36 15,-79l0 -79 55 0c31,0 57,-7 57,-16 0,-8 17,-15 39,-15 21,0 39,7 39,15 0,9 25,16 55,16 39,0 56,8 56,24 0,13 11,24 23,24 15,0 24,15 24,39 0,21 7,39 16,39 9,0 16,40 16,87 0,48 -7,87 -16,87 -9,0 -16,11 -16,24 0,13 -7,24 -16,24 -9,0 -16,10 -16,23 0,14 -11,24 -23,24 -13,0 -24,-10 -24,-24 0,-13 -7,-23 -15,-23 -9,0 -16,-8 -16,-17 0,-31 -45,-63 -86,-63 -47,0 -55,36 -16,75 18,18 22,41 14,89 -12,71 -24,92 -34,62 -4,-11 -32,-20 -62,-20 -41,0 -54,7 -54,28 0,29 -51,83 -79,83 -8,0 -15,6 -15,14 0,7 -23,18 -50,23 -51,11 -109,62 -109,99 0,12 -6,22 -15,22 -9,0 -16,11 -16,25 0,16 -9,22 -23,16 -27,-10 -135,89 -135,124 0,14 -8,24 -16,24 -9,0 -16,11 -16,23 0,15 -15,25 -38,25 -20,0 -40,7 -45,18 -8,27 -200,24 -218,-4 -8,-13 -14,-15 -14,-5 0,11 -18,23 -40,29 -22,5 -40,17 -40,25 0,9 -17,15 -39,15 -21,0 -39,-7 -39,-16 0,-8 -14,-16 -31,-16 -60,0 -79,-18 -79,-72 0,-29 6,-54 14,-54 28,0 18,-39 -14,-63 -18,-13 -32,-32 -32,-42 0,-12 -11,-21 -24,-21 -16,0 -24,-17 -24,-56 0,-29 -7,-55 -16,-55 -8,0 -16,-7 -16,-17 0,-9 -10,-26 -22,-39 -12,-13 -30,-22 -40,-22 -8,0 -17,-8 -17,-16 0,-10 -9,-16 -21,-16 -38,0 -84,-55 -95,-114 -7,-33 -18,-60 -27,-60 -7,0 -15,-13 -15,-31 0,-23 -13,-33 -54,-41 -34,-7 -58,-22 -64,-40 -6,-17 -24,-31 -41,-31 -16,0 -30,-10 -30,-23 0,-13 -11,-23 -24,-23 -14,0 -24,-17 -25,-45 -1,-26 -4,-32 -9,-14 -5,15 -23,27 -46,27 -21,0 -38,6 -38,15 0,7 -33,19 -74,25 -83,13 -116,36 -116,84 0,17 -8,35 -20,39 -10,5 29,4 86,0 58,-5 130,-4 162,1 50,10 57,17 57,56 0,26 -11,56 -24,70 -13,13 -23,38 -23,56 0,18 -8,33 -16,33 -9,0 -20,29 -26,63 -6,35 -17,63 -24,63 -8,0 -14,14 -14,32 0,17 8,32 16,32 8,0 16,28 16,62 0,35 -8,64 -16,64 -8,0 -16,13 -16,31 0,17 8,32 16,32 8,0 16,32 16,71 0,39 -8,71 -16,71 -28,0 -17,62 16,94 25,26 53,32 134,32 56,0 103,7 103,14 0,7 42,19 94,24 53,7 96,18 96,27 0,7 21,15 47,15 26,0 47,7 47,15 0,9 29,16 65,16 53,0 76,10 113,48 25,28 49,73 55,103 4,30 15,55 22,55 7,0 14,35 14,78 0,44 6,80 14,80 7,0 18,49 23,110 7,81 16,111 42,144l522 0c6,-12 28,-22 63,-28 35,-5 63,-16 63,-23 0,-8 14,-14 31,-14 18,0 32,-6 32,-15 0,-7 21,-19 47,-25 26,-5 48,-16 48,-25 0,-8 14,-14 31,-14 18,0 31,-8 31,-16 0,-9 11,-16 25,-16 16,0 23,-16 23,-53l0 -54 153 -12c136,-10 156,-16 197,-55 25,-23 45,-54 45,-69 0,-13 7,-25 16,-25 8,0 16,-18 16,-39 0,-22 6,-40 14,-40 7,0 18,-36 24,-80 11,-85 75,-172 125,-172 15,0 26,-8 26,-16 0,-10 26,-16 56,-16 62,0 92,-21 109,-76 6,-19 18,-35 26,-35 8,0 15,-11 15,-24 0,-12 6,-23 14,-23 7,0 19,-18 24,-40 5,-21 17,-39 25,-39 9,0 15,-11 15,-24 0,-13 6,-24 15,-24 7,0 18,-24 24,-55 6,-31 17,-55 26,-55 7,0 15,-15 15,-32 0,-17 7,-32 15,-32 9,0 16,-10 16,-23 0,-14 8,-24 16,-24 9,0 16,-14 16,-31 0,-18 -7,-32 -16,-32 -9,0 -16,-50 -16,-118 0,-69 -7,-119 -16,-119 -9,0 -15,-46 -15,-104 0,-110 -21,-149 -76,-149 -17,0 -44,-17 -60,-39 -23,-30 -49,-40 -121,-49 -79,-9 -93,-16 -100,-48 -6,-21 -16,-38 -25,-38 -7,0 -13,-13 -13,-30 0,-18 -7,-32 -15,-32 -8,0 -19,-21 -25,-48 -6,-26 -17,-48 -25,-48 -7,0 -15,-13 -15,-31 0,-17 -6,-31 -14,-31 -8,0 -19,-22 -25,-48 -5,-26 -17,-47 -24,-47 -9,0 -15,-14 -15,-30 0,-17 -11,-34 -23,-39 -14,-5 -25,-28 -25,-49 0,-22 -7,-40 -16,-40 -8,0 -16,-14 -16,-32 0,-17 -6,-32 -13,-32 -8,0 -18,-17 -25,-39 -5,-21 -17,-39 -25,-39 -9,0 -15,-11 -15,-24 0,-16 -16,-24 -48,-24 -26,0 -47,7 -47,14l0 0z"/>
  <path class="fil1" d="M3755 10203c-27,-5 -62,-24 -78,-42 -24,-29 -48,-34 -174,-37 -97,-2 -149,-10 -153,-22 -3,-11 -16,-19 -28,-19 -13,0 -23,-8 -23,-16 0,-10 -18,-35 -39,-56 -22,-23 -40,-50 -40,-63 0,-13 -6,-23 -16,-23 -8,0 -16,-14 -16,-32 0,-17 -6,-31 -16,-31 -8,0 -14,-18 -14,-38 0,-55 -16,-89 -42,-89 -28,0 -86,-56 -86,-84 0,-35 -67,-45 -92,-14 -16,20 -24,22 -29,8 -10,-27 -36,-25 -36,3 0,14 7,25 16,25 8,0 15,14 15,30 0,18 -10,32 -23,32 -14,0 -24,11 -24,25 0,12 10,23 24,23 13,0 23,7 23,16 0,8 18,16 40,16 24,0 39,8 39,23 0,17 -16,24 -55,24 -64,0 -74,26 -16,41 24,6 40,21 40,39 0,15 9,30 19,35 26,8 -15,50 -63,65 -31,10 -32,14 -13,34 13,13 31,22 39,22 10,0 18,8 18,15 0,9 16,17 35,20 32,5 36,14 36,80 0,50 6,75 19,75 12,0 20,15 20,32 0,17 -8,31 -20,33 -16,1 -16,3 0,9 26,11 27,143 1,152 -13,3 -19,44 -19,118 0,27 0,47 1,64l1582 0c-1,-13 -2,-27 -3,-42 -6,-137 -13,-167 -40,-190 -18,-16 -33,-44 -33,-63 0,-27 9,-33 56,-33 44,0 55,-6 55,-31 0,-38 37,-48 162,-44 67,3 96,-3 108,-20 13,-18 18,-19 24,-4 10,23 53,26 53,4 0,-8 31,-16 69,-16 62,0 71,6 80,39 5,23 17,41 25,41 8,0 16,10 16,23 0,13 7,23 16,23 8,0 16,15 16,32 0,18 -8,32 -16,32 -9,0 -16,15 -16,33 0,18 -11,43 -23,56 -14,12 -25,34 -25,46 0,13 11,23 25,23 12,0 23,-8 23,-16 0,-30 64,-16 104,23 39,40 49,72 22,72 -5,0 -10,4 -13,12l555 0c-3,-12 -5,-25 -5,-37 0,-30 -8,-54 -16,-54 -9,0 -16,-29 -16,-64 0,-35 -5,-63 -13,-63 -7,0 -18,-51 -23,-115 -5,-62 -17,-116 -27,-119 -8,-4 -15,-12 -15,-21 0,-8 -17,-31 -37,-53 -29,-28 -63,-39 -151,-47 -61,-7 -113,-18 -113,-26 0,-8 -17,-14 -38,-14 -20,0 -40,-8 -44,-16 -8,-26 -296,-42 -296,-17 0,24 -39,64 -62,64 -9,0 -33,17 -55,38 -23,25 -65,43 -111,50 -40,6 -73,17 -73,25 0,8 -10,13 -23,13 -14,0 -24,8 -24,16 0,10 -17,16 -39,16 -21,0 -48,11 -61,24 -14,13 -39,24 -57,24 -18,0 -33,6 -33,14 0,7 -28,18 -63,24 -34,5 -63,17 -63,25 0,24 -110,19 -112,-4 -1,-16 -2,-16 -9,0 -4,11 -22,20 -38,20 -17,0 -31,7 -31,14 0,8 -35,19 -79,25 -43,7 -78,17 -78,26 0,7 -15,14 -32,14 -26,0 -32,-11 -32,-61 0,-67 -34,-117 -90,-135 -20,-7 -36,-18 -36,-27 0,-7 -10,-14 -23,-14 -14,0 -25,-6 -25,-14 0,-8 -22,-18 -49,-24l0 0 0 0z"/>
  <g id="_820228168">
   <g transform="matrix(1 0 0 1 -3547.2 -1781.54)">
    <text x="4448" y="5348"  class="fil2 fnt0">Capas</text>
   </g>
  </g>
  <g id="_820228768">
   <g transform="matrix(1 0 0 1 -653.317 58.7507)">
    <text x="4448" y="5348"  class="fil2 fnt0">San Fernando</text>
   </g>
  </g>
  <g id="_820228408">
   <g transform="matrix(1 0 0 1 628.957 2277.09)">
    <text x="4448" y="5348"  class="fil2 fnt0">Manila</text>
   </g>
  </g>
  <g id="_820229104">
   <g transform="matrix(1 0 0 1 -4272.53 3133.72)">
    <text x="4448" y="5348"  class="fil2 fnt0">Mariveles</text>
   </g>
  </g>
  <g id="_820229560">
   <g transform="matrix(1 0 0 1 -4272.53 3764.79)">
    <text x="4448" y="5348"  class="fil2 fnt0">Corregidor</text>
   </g>
  </g>
  <g id="_820230184">
   <g transform="matrix(1 0 0 1 -644.847 -2351.21)">
    <text x="4448" y="5348"  class="fil2 fnt0">Cabanatuan</text>
   </g>
  </g>
  <polyline class="fil3 str0" points="2778,8275 2412,6711 3127,5355 "/>
  <g id="_717503984">
   <line class="fil3 str0" x1="3047" y1="5226" x2="1785" y2= "4019" />
   <line class="fil3 str0" x1="3117" y1="5150" x2="1854" y2= "3944" />
   <line class="fil3 str1" x1="1810" y1="4044" x2="1883" y2= "3972" />
   <line class="fil3 str1" x1="1860" y1="4091" x2="1932" y2= "4019" />
   <line class="fil3 str1" x1="1909" y1="4139" x2="1981" y2= "4067" />
   <line class="fil3 str1" x1="1958" y1="4188" x2="2030" y2= "4116" />
   <line class="fil3 str1" x1="2007" y1="4237" x2="2080" y2= "4163" />
   <line class="fil3 str1" x1="2055" y1="4285" x2="2127" y2= "4213" />
   <line class="fil3 str1" x1="2104" y1="4334" x2="2177" y2= "4261" />
   <line class="fil3 str1" x1="2153" y1="4383" x2="2226" y2= "4310" />
   <line class="fil3 str1" x1="2202" y1="4430" x2="2274" y2= "4358" />
   <line class="fil3 str1" x1="2252" y1="4478" x2="2324" y2= "4406" />
   <line class="fil3 str1" x1="2301" y1="4526" x2="2374" y2= "4454" />
   <line class="fil3 str1" x1="2358" y1="4567" x2="2430" y2= "4495" />
   <line class="fil3 str1" x1="2407" y1="4615" x2="2479" y2= "4543" />
   <line class="fil3 str1" x1="2455" y1="4663" x2="2527" y2= "4591" />
   <line class="fil3 str1" x1="2505" y1="4712" x2="2577" y2= "4639" />
   <line class="fil3 str1" x1="2553" y1="4761" x2="2625" y2= "4689" />
   <line class="fil3 str1" x1="2602" y1="4809" x2="2675" y2= "4736" />
   <line class="fil3 str1" x1="2650" y1="4858" x2="2723" y2= "4785" />
   <line class="fil3 str1" x1="2700" y1="4906" x2="2772" y2= "4834" />
   <line class="fil3 str1" x1="2750" y1="4953" x2="2822" y2= "4881" />
   <line class="fil3 str1" x1="2799" y1="5001" x2="2872" y2= "4929" />
   <line class="fil3 str1" x1="2855" y1="5042" x2="2927" y2= "4970" />
   <line class="fil3 str1" x1="2903" y1="5091" x2="2975" y2= "5019" />
   <line class="fil3 str1" x1="2953" y1="5140" x2="3025" y2= "5067" />
   <line class="fil3 str1" x1="3001" y1="5188" x2="3073" y2= "5116" />
   <line class="fil3 str1" x1="3025" y1="5213" x2="3097" y2= "5141" />
  </g>
  <g id="_820233640">
   <g transform="matrix(1 0 0 1 -706.258 -3000.3)">
    <text x="4448" y="5348"  class="fil2 fnt1">Nueva Ecija</text>
   </g>
  </g>
  <g id="_820234552">
   <g transform="matrix(1 0 0 1 -2673.63 -2557.68)">
    <text x="4448" y="5348"  class="fil2 fnt1">Tarlac</text>
   </g>
  </g>
  <g id="_820234816">
   <g transform="matrix(1 0 0 1 -3400.02 2022.96)">
    <text x="4448" y="5348"  class="fil2 fnt1">Bat</text>
    <text x="5246" y="5348"  class="fil2 fnt1">an</text>
    <text x="5030" y="5348"  class="fil2 fnt1">a</text>
   </g>
  </g>
  <g id="_820234384">
   <g transform="matrix(1 0 0 1 -3757.91 288.533)">
    <text x="4448" y="5348"  class="fil2 fnt1">Pampanga</text>
   </g>
  </g>
  <g id="_820235488">
   <g transform="matrix(1 0 0 1 -960.381 4388.46)">
    <text x="4448" y="5348"  class="fil2 fnt1">Cavite</text>
   </g>
  </g>
  <g id="_820234984">
   <g transform="matrix(1 0 0 1 -1433.7 2646.63)">
    <text x="4448" y="5348"  class="fil4 fnt2">Manila Bay</text>
   </g>
  </g>
  <g id="_820236184">
   <g transform="matrix(1 0 0 1 -4128.53 4923.2)">
    <text x="4448" y="5348"  class="fil4 fnt2">South China Sea</text>
   </g>
  </g>
  <g id="_820236352">
   <g transform="matrix(1 0 0 1 2496.81 -978.911)">
    <text x="4448" y="5348"  class="fil4 fnt2">Pacific Ocean</text>
   </g>
  </g>
 </g>
 <g id="Layer_x0020_2">
  <metadata id="CorelCorpID_1Corel-Layer"/>
  <circle class="fil5 str0" cx="2851" cy="8401" r="145"/>
  <circle class="fil5 str0" cx="3195" cy="5226" r="145"/>
  <circle class="fil5 str0" cx="1720" cy="3889" r="145"/>
  <circle class="fil5 str0" cx="4584" cy="3301" r="145"/>
  <circle class="fil5 str0" cx="4710" cy="7448" r="145"/>
 </g>
</svg>
